<svg xmlns="http://www.w3.org/2000/svg" version="1.1" xmlns:xlink="http://www.w3.org/1999/xlink" xmlns:svgjs="http://svgjs.dev/svgjs" width="1200" height="560" preserveAspectRatio="none" viewBox="0 0 1200 560"><g mask="url(&quot;#SvgjsMask1118&quot;)" fill="none"><path d="M-206.3 382.67C-107.65 382.95-12.13 452.67 182.05 452.67 376.22 452.67 369.77 381.03 570.39 382.67 771.01 384.31 840.94 641.51 958.74 654.57" stroke="rgba(51,121,194,0.58)" stroke-width="2"></path><path d="M-146.19 123.27C-54.01 134.4-34.29 315.2 154.2 341.67 342.69 368.14 358.24 575.43 454.59 590.94" stroke="rgba(51,121,194,0.58)" stroke-width="2"></path><path d="M-180.62 140.34C-90.56 147.85-62.25 307.64 126.67 330.74 315.58 353.84 334.85 573.19 433.95 589.66" stroke="rgba(51,121,194,0.58)" stroke-width="2"></path><path d="M-49.52 459.09C42.88 459.41 131.94 529.09 313.4 529.09 494.86 529.09 494.15 459.03 676.31 459.09 858.47 459.15 942.54 590.91 1039.23 593.02" stroke="rgba(51,121,194,0.58)" stroke-width="2"></path><path d="M-41.86 444.4C58.9 438.54 132.15 253.16 314.13 254 496.11 254.84 549.51 569.82 670.12 595.95" stroke="rgba(51,121,194,0.58)" stroke-width="2"></path></g><defs><mask id="SvgjsMask1118"><rect width="1200" height="560" fill="#ffffff"></rect></mask></defs></svg>